<svg width="132" height="43" viewBox="0 0 132 43" fill="none" xmlns="http://www.w3.org/2000/svg">
<path d="M52.914 26.608H59.024V29H49.95V10.93H52.914V26.608ZM67.7167 29.234C66.3647 29.234 65.1427 28.9307 64.0507 28.324C62.9587 27.7 62.1007 26.8333 61.4767 25.724C60.8527 24.5973 60.5407 23.2973 60.5407 21.824C60.5407 20.368 60.8614 19.0767 61.5027 17.95C62.1441 16.8233 63.0194 15.9567 64.1287 15.35C65.2381 14.7433 66.4774 14.44 67.8467 14.44C69.2161 14.44 70.4554 14.7433 71.5647 15.35C72.6741 15.9567 73.5494 16.8233 74.1907 17.95C74.8321 19.0767 75.1527 20.368 75.1527 21.824C75.1527 23.28 74.8234 24.5713 74.1647 25.698C73.5061 26.8247 72.6047 27.7 71.4607 28.324C70.3341 28.9307 69.0861 29.234 67.7167 29.234ZM67.7167 26.66C68.4794 26.66 69.1901 26.478 69.8487 26.114C70.5247 25.75 71.0707 25.204 71.4867 24.476C71.9027 23.748 72.1107 22.864 72.1107 21.824C72.1107 20.784 71.9114 19.9087 71.5127 19.198C71.1141 18.47 70.5854 17.924 69.9267 17.56C69.2681 17.196 68.5574 17.014 67.7947 17.014C67.0321 17.014 66.3214 17.196 65.6627 17.56C65.0214 17.924 64.5101 18.47 64.1287 19.198C63.7474 19.9087 63.5567 20.784 63.5567 21.824C63.5567 23.3667 63.9467 24.5627 64.7267 25.412C65.5241 26.244 66.5207 26.66 67.7167 26.66ZM77.0948 21.824C77.0948 20.3507 77.3895 19.0593 77.9788 17.95C78.5855 16.8233 79.4175 15.9567 80.4748 15.35C81.5321 14.7433 82.7455 14.44 84.1148 14.44C85.8481 14.44 87.2781 14.856 88.4048 15.688C89.5488 16.5027 90.3201 17.6727 90.7188 19.198H87.5208C87.2608 18.4873 86.8448 17.9327 86.2728 17.534C85.7008 17.1353 84.9815 16.936 84.1148 16.936C82.9015 16.936 81.9308 17.3693 81.2028 18.236C80.4921 19.0853 80.1368 20.2813 80.1368 21.824C80.1368 23.3667 80.4921 24.5713 81.2028 25.438C81.9308 26.3047 82.9015 26.738 84.1148 26.738C85.8308 26.738 86.9661 25.984 87.5208 24.476H90.7188C90.3028 25.932 89.5228 27.0933 88.3788 27.96C87.2348 28.8093 85.8135 29.234 84.1148 29.234C82.7455 29.234 81.5321 28.9307 80.4748 28.324C79.4175 27.7 78.5855 26.8333 77.9788 25.724C77.3895 24.5973 77.0948 23.2973 77.0948 21.824ZM92.6847 21.824C92.6847 20.3507 92.9793 19.0593 93.5687 17.95C94.1753 16.8233 95.0073 15.9567 96.0647 15.35C97.122 14.7433 98.3353 14.44 99.7047 14.44C101.438 14.44 102.868 14.856 103.995 15.688C105.139 16.5027 105.91 17.6727 106.309 19.198H103.111C102.851 18.4873 102.435 17.9327 101.863 17.534C101.291 17.1353 100.571 16.936 99.7047 16.936C98.4913 16.936 97.5207 17.3693 96.7927 18.236C96.082 19.0853 95.7267 20.2813 95.7267 21.824C95.7267 23.3667 96.082 24.5713 96.7927 25.438C97.5207 26.3047 98.4913 26.738 99.7047 26.738C101.421 26.738 102.556 25.984 103.111 24.476H106.309C105.893 25.932 105.113 27.0933 103.969 27.96C102.825 28.8093 101.403 29.234 99.7047 29.234C98.3353 29.234 97.122 28.9307 96.0647 28.324C95.0073 27.7 94.1753 26.8333 93.5687 25.724C92.9793 24.5973 92.6847 23.2973 92.6847 21.824ZM108.275 21.772C108.275 20.3333 108.569 19.0593 109.159 17.95C109.765 16.8407 110.58 15.9827 111.603 15.376C112.643 14.752 113.787 14.44 115.035 14.44C116.161 14.44 117.141 14.6653 117.973 15.116C118.822 15.5493 119.498 16.0953 120.001 16.754V14.674H122.991V29H120.001V26.868C119.498 27.544 118.813 28.1073 117.947 28.558C117.08 29.0087 116.092 29.234 114.983 29.234C113.752 29.234 112.625 28.922 111.603 28.298C110.58 27.6567 109.765 26.7727 109.159 25.646C108.569 24.502 108.275 23.2107 108.275 21.772ZM120.001 21.824C120.001 20.836 119.793 19.978 119.377 19.25C118.978 18.522 118.449 17.9673 117.791 17.586C117.132 17.2047 116.421 17.014 115.659 17.014C114.896 17.014 114.185 17.2047 113.527 17.586C112.868 17.95 112.331 18.496 111.915 19.224C111.516 19.9347 111.317 20.784 111.317 21.772C111.317 22.76 111.516 23.6267 111.915 24.372C112.331 25.1173 112.868 25.6893 113.527 26.088C114.203 26.4693 114.913 26.66 115.659 26.66C116.421 26.66 117.132 26.4693 117.791 26.088C118.449 25.7067 118.978 25.152 119.377 24.424C119.793 23.6787 120.001 22.812 120.001 21.824ZM129.848 9.76V29H126.884V9.76H129.848Z" fill="black"/>
<path d="M50.48 34.5C50.48 33.8133 50.63 33.2 50.93 32.66C51.23 32.1133 51.64 31.69 52.16 31.39C52.68 31.0833 53.26 30.93 53.9 30.93C54.68 30.93 55.3467 31.1167 55.9 31.49C56.46 31.8567 56.8667 32.3767 57.12 33.05H56.3C56.1 32.5767 55.7933 32.2067 55.38 31.94C54.9733 31.6733 54.48 31.54 53.9 31.54C53.3867 31.54 52.9233 31.66 52.51 31.9C52.1033 32.14 51.7833 32.4867 51.55 32.94C51.3167 33.3867 51.2 33.9067 51.2 34.5C51.2 35.0933 51.3167 35.6133 51.55 36.06C51.7833 36.5067 52.1033 36.85 52.51 37.09C52.9233 37.33 53.3867 37.45 53.9 37.45C54.48 37.45 54.9733 37.32 55.38 37.06C55.7933 36.7933 56.1 36.4267 56.3 35.96H57.12C56.8667 36.6267 56.46 37.1433 55.9 37.51C55.34 37.8767 54.6733 38.06 53.9 38.06C53.26 38.06 52.68 37.91 52.16 37.61C51.64 37.3033 51.23 36.88 50.93 36.34C50.63 35.8 50.48 35.1867 50.48 34.5ZM60.9048 38.08C60.3915 38.08 59.9282 37.9667 59.5148 37.74C59.1082 37.5067 58.7848 37.18 58.5448 36.76C58.3115 36.3333 58.1948 35.8367 58.1948 35.27C58.1948 34.7033 58.3148 34.21 58.5548 33.79C58.7948 33.3633 59.1215 33.0367 59.5348 32.81C59.9482 32.5767 60.4115 32.46 60.9248 32.46C61.4382 32.46 61.9015 32.5767 62.3148 32.81C62.7348 33.0367 63.0615 33.3633 63.2948 33.79C63.5348 34.21 63.6548 34.7033 63.6548 35.27C63.6548 35.83 63.5348 36.3233 63.2948 36.75C63.0548 37.1767 62.7248 37.5067 62.3048 37.74C61.8848 37.9667 61.4182 38.08 60.9048 38.08ZM60.9048 37.47C61.2648 37.47 61.5982 37.39 61.9048 37.23C62.2115 37.0633 62.4582 36.8167 62.6448 36.49C62.8382 36.1567 62.9348 35.75 62.9348 35.27C62.9348 34.79 62.8415 34.3867 62.6548 34.06C62.4682 33.7267 62.2215 33.48 61.9148 33.32C61.6082 33.1533 61.2748 33.07 60.9148 33.07C60.5548 33.07 60.2215 33.1533 59.9148 33.32C59.6082 33.48 59.3615 33.7267 59.1748 34.06C58.9948 34.3867 58.9048 34.79 58.9048 35.27C58.9048 35.75 58.9948 36.1567 59.1748 36.49C59.3615 36.8167 59.6048 37.0633 59.9048 37.23C60.2115 37.39 60.5448 37.47 60.9048 37.47ZM71.4309 32.44C72.0709 32.44 72.5909 32.6433 72.9909 33.05C73.3975 33.45 73.6009 34.0333 73.6009 34.8V38H72.9109V34.88C72.9109 34.2867 72.7675 33.8333 72.4809 33.52C72.1942 33.2067 71.8042 33.05 71.3109 33.05C70.7975 33.05 70.3875 33.22 70.0809 33.56C69.7742 33.9 69.6209 34.3933 69.6209 35.04V38H68.9309V34.88C68.9309 34.2867 68.7875 33.8333 68.5009 33.52C68.2142 33.2067 67.8209 33.05 67.3209 33.05C66.8075 33.05 66.3975 33.22 66.0909 33.56C65.7842 33.9 65.6309 34.3933 65.6309 35.04V38H64.9309V32.54H65.6309V33.48C65.8042 33.14 66.0509 32.8833 66.3709 32.71C66.6909 32.53 67.0475 32.44 67.4409 32.44C67.9142 32.44 68.3275 32.5533 68.6809 32.78C69.0409 33.0067 69.3009 33.34 69.4609 33.78C69.6075 33.3467 69.8575 33.0167 70.2109 32.79C70.5709 32.5567 70.9775 32.44 71.4309 32.44ZM75.8455 33.74C76.0188 33.3733 76.2921 33.07 76.6655 32.83C77.0455 32.5833 77.4955 32.46 78.0155 32.46C78.5088 32.46 78.9521 32.5767 79.3455 32.81C79.7455 33.0367 80.0555 33.3633 80.2755 33.79C80.5021 34.21 80.6155 34.7 80.6155 35.26C80.6155 35.82 80.5021 36.3133 80.2755 36.74C80.0555 37.1667 79.7455 37.4967 79.3455 37.73C78.9521 37.9633 78.5088 38.08 78.0155 38.08C77.5021 38.08 77.0555 37.96 76.6755 37.72C76.2955 37.4733 76.0188 37.1667 75.8455 36.8V40.58H75.1555V32.54H75.8455V33.74ZM79.9055 35.26C79.9055 34.8067 79.8155 34.4167 79.6355 34.09C79.4621 33.7567 79.2221 33.5033 78.9155 33.33C78.6088 33.1567 78.2621 33.07 77.8755 33.07C77.5021 33.07 77.1588 33.16 76.8455 33.34C76.5388 33.52 76.2955 33.7767 76.1155 34.11C75.9355 34.4433 75.8455 34.83 75.8455 35.27C75.8455 35.71 75.9355 36.0967 76.1155 36.43C76.2955 36.7633 76.5388 37.02 76.8455 37.2C77.1588 37.38 77.5021 37.47 77.8755 37.47C78.2621 37.47 78.6088 37.3833 78.9155 37.21C79.2221 37.03 79.4621 36.7733 79.6355 36.44C79.8155 36.1 79.9055 35.7067 79.9055 35.26ZM81.5835 35.26C81.5835 34.7 81.6935 34.21 81.9135 33.79C82.1402 33.3633 82.4502 33.0367 82.8435 32.81C83.2435 32.5767 83.6935 32.46 84.1935 32.46C84.7135 32.46 85.1602 32.58 85.5335 32.82C85.9135 33.06 86.1868 33.3667 86.3535 33.74V32.54H87.0535V38H86.3535V36.79C86.1802 37.1633 85.9035 37.4733 85.5235 37.72C85.1502 37.96 84.7035 38.08 84.1835 38.08C83.6902 38.08 83.2435 37.9633 82.8435 37.73C82.4502 37.4967 82.1402 37.1667 81.9135 36.74C81.6935 36.3133 81.5835 35.82 81.5835 35.26ZM86.3535 35.27C86.3535 34.83 86.2635 34.4433 86.0835 34.11C85.9035 33.7767 85.6568 33.52 85.3435 33.34C85.0368 33.16 84.6968 33.07 84.3235 33.07C83.9368 33.07 83.5902 33.1567 83.2835 33.33C82.9768 33.5033 82.7335 33.7567 82.5535 34.09C82.3802 34.4167 82.2935 34.8067 82.2935 35.26C82.2935 35.7067 82.3802 36.1 82.5535 36.44C82.7335 36.7733 82.9768 37.03 83.2835 37.21C83.5902 37.3833 83.9368 37.47 84.3235 37.47C84.6968 37.47 85.0368 37.38 85.3435 37.2C85.6568 37.02 85.9035 36.7633 86.0835 36.43C86.2635 36.0967 86.3535 35.71 86.3535 35.27ZM91.2116 32.44C91.8649 32.44 92.3982 32.6433 92.8116 33.05C93.2249 33.45 93.4316 34.0333 93.4316 34.8V38H92.7416V34.88C92.7416 34.2867 92.5916 33.8333 92.2916 33.52C91.9982 33.2067 91.5949 33.05 91.0816 33.05C90.5549 33.05 90.1349 33.2167 89.8216 33.55C89.5082 33.8833 89.3516 34.3733 89.3516 35.02V38H88.6516V32.54H89.3516V33.47C89.5249 33.1367 89.7749 32.8833 90.1016 32.71C90.4282 32.53 90.7982 32.44 91.2116 32.44ZM95.3297 31.51C95.1897 31.51 95.0697 31.46 94.9697 31.36C94.8697 31.26 94.8197 31.1367 94.8197 30.99C94.8197 30.8433 94.8697 30.7233 94.9697 30.63C95.0697 30.53 95.1897 30.48 95.3297 30.48C95.4697 30.48 95.5897 30.53 95.6897 30.63C95.7897 30.7233 95.8397 30.8433 95.8397 30.99C95.8397 31.1367 95.7897 31.26 95.6897 31.36C95.5897 31.46 95.4697 31.51 95.3297 31.51ZM95.6797 32.54V38H94.9797V32.54H95.6797ZM102.205 34.99C102.205 35.23 102.198 35.4133 102.185 35.54H97.6548C97.6748 35.9533 97.7748 36.3067 97.9548 36.6C98.1348 36.8933 98.3715 37.1167 98.6648 37.27C98.9582 37.4167 99.2782 37.49 99.6248 37.49C100.078 37.49 100.458 37.38 100.765 37.16C101.078 36.94 101.285 36.6433 101.385 36.27H102.125C101.992 36.8033 101.705 37.24 101.265 37.58C100.832 37.9133 100.285 38.08 99.6248 38.08C99.1115 38.08 98.6515 37.9667 98.2448 37.74C97.8382 37.5067 97.5182 37.18 97.2848 36.76C97.0582 36.3333 96.9448 35.8367 96.9448 35.27C96.9448 34.7033 97.0582 34.2067 97.2848 33.78C97.5115 33.3533 97.8282 33.0267 98.2348 32.8C98.6415 32.5733 99.1048 32.46 99.6248 32.46C100.145 32.46 100.598 32.5733 100.985 32.8C101.378 33.0267 101.678 33.3333 101.885 33.72C102.098 34.1 102.205 34.5233 102.205 34.99ZM101.495 34.97C101.502 34.5633 101.418 34.2167 101.245 33.93C101.078 33.6433 100.848 33.4267 100.555 33.28C100.262 33.1333 99.9415 33.06 99.5948 33.06C99.0748 33.06 98.6315 33.2267 98.2648 33.56C97.8982 33.8933 97.6948 34.3633 97.6548 34.97H101.495ZM105.366 38.08C104.739 38.08 104.226 37.9367 103.826 37.65C103.432 37.3567 103.212 36.96 103.166 36.46H103.886C103.919 36.7667 104.062 37.0167 104.316 37.21C104.576 37.3967 104.922 37.49 105.356 37.49C105.736 37.49 106.032 37.4 106.246 37.22C106.466 37.04 106.576 36.8167 106.576 36.55C106.576 36.3633 106.516 36.21 106.396 36.09C106.276 35.97 106.122 35.8767 105.936 35.81C105.756 35.7367 105.509 35.66 105.196 35.58C104.789 35.4733 104.459 35.3667 104.206 35.26C103.952 35.1533 103.736 34.9967 103.556 34.79C103.382 34.5767 103.296 34.2933 103.296 33.94C103.296 33.6733 103.376 33.4267 103.536 33.2C103.696 32.9733 103.922 32.7933 104.216 32.66C104.509 32.5267 104.842 32.46 105.216 32.46C105.802 32.46 106.276 32.61 106.636 32.91C106.996 33.2033 107.189 33.61 107.216 34.13H106.516C106.496 33.81 106.369 33.5533 106.136 33.36C105.909 33.16 105.596 33.06 105.196 33.06C104.842 33.06 104.556 33.1433 104.336 33.31C104.116 33.4767 104.006 33.6833 104.006 33.93C104.006 34.1433 104.069 34.32 104.196 34.46C104.329 34.5933 104.492 34.7 104.686 34.78C104.879 34.8533 105.139 34.9367 105.466 35.03C105.859 35.1367 106.172 35.24 106.406 35.34C106.639 35.44 106.839 35.5867 107.006 35.78C107.172 35.9733 107.259 36.23 107.266 36.55C107.266 36.8433 107.186 37.1067 107.026 37.34C106.866 37.5667 106.642 37.7467 106.356 37.88C106.069 38.0133 105.739 38.08 105.366 38.08Z" fill="black"/>
<path d="M32.25 37.625C35.2185 37.625 37.625 35.2185 37.625 32.25C37.625 29.2815 35.2185 26.875 32.25 26.875C29.2815 26.875 26.875 29.2815 26.875 32.25C26.875 35.2185 29.2815 37.625 32.25 37.625Z" stroke="#E36924" stroke-width="2" stroke-linecap="round" stroke-linejoin="round"/>
<path d="M10.75 16.125C13.7185 16.125 16.125 13.7185 16.125 10.75C16.125 7.78147 13.7185 5.375 10.75 5.375C7.78147 5.375 5.375 7.78147 5.375 10.75C5.375 13.7185 7.78147 16.125 10.75 16.125Z" stroke="#6D2FD2" stroke-width="2" stroke-linecap="round" stroke-linejoin="round"/>
<path d="M23.2917 10.75H28.6667C29.617 10.75 30.5285 11.1275 31.2005 11.7995C31.8725 12.4715 32.25 13.383 32.25 14.3333V26.875" stroke="#E36924" stroke-width="2" stroke-linecap="round" stroke-linejoin="round"/>
<path d="M19.7083 32.25H14.3333C13.383 32.25 12.4715 31.8725 11.7995 31.2005C11.1275 30.5285 10.75 29.617 10.75 28.6667V16.125" stroke="#6D2FD2" stroke-width="2" stroke-linecap="round" stroke-linejoin="round"/>
</svg>
